<?xml version="1.0" encoding="iso-8859-1"?>
<!-- Generator: Adobe Illustrator 16.0.0, SVG Export Plug-In . SVG Version: 6.00 Build 0)  -->
<!DOCTYPE svg PUBLIC "-//W3C//DTD SVG 1.1//EN" "http://www.w3.org/Graphics/SVG/1.1/DTD/svg11.dtd">
<svg version="1.1" id="Capa_1" xmlns="http://www.w3.org/2000/svg" xmlns:xlink="http://www.w3.org/1999/xlink" x="0px" y="0px"
	 width="581.819px" height="581.818px" viewBox="0 0 581.819 581.818" style="enable-background:new 0 0 581.819 581.818;"
	 xml:space="preserve">
<g>
	<g>
		<path d="M498.154,47.054c-27.51-16.522-58.796-25.255-90.475-25.255c-13.787,0-27.53,1.607-40.848,4.778
			c-12.965,3.086-25.591,7.668-37.528,13.618C315.41,47.12,302.4,55.96,290.75,66.327c-11.649-10.366-24.659-19.207-38.552-26.131
			c-11.938-5.95-24.564-10.532-37.528-13.618c-13.318-3.17-27.061-4.778-40.848-4.778c-33.067,0-65.409,9.562-93.528,27.653
			c-27.679,17.809-49.825,42.938-64.042,72.67C0.048,156.008-3.676,193.59,5.183,233.824c6.153,27.947,18.141,57.028,37.725,91.52
			c27.629,48.664,65.566,95.072,112.756,137.941c5.645,5.127,11.338,10.396,17.365,15.975c25.724,23.807,54.88,50.789,85.956,71.238
			c9.465,6.23,20.468,9.521,31.819,9.521c10.993,0,21.726-3.1,31.042-8.969c53.197-33.512,101.839-75.588,144.575-125.059
			c43.892-50.809,91.077-112.137,108.251-181.752c3.781-15.327,5.972-30.49,6.511-45.068c1.146-31.003-4.985-59.313-18.224-84.148
			C548.057,87.07,525.648,63.567,498.154,47.054z M538.373,197.588c-0.454,12.276-2.353,24.471-5.293,36.39
			c-15.027,60.918-58.714,117.284-99.077,164.006c-39.054,45.209-84.425,84.963-134.99,116.816c-2.508,1.58-5.36,2.377-8.207,2.377
			c-2.884,0-5.763-0.818-8.27-2.467c-34.76-22.873-67.731-55.582-98.065-83.139c-40.631-36.908-77.151-79.551-104.307-127.381
			C52.005,254.598,28.364,196.096,54.9,140.602c21.858-45.711,68.031-75.965,118.922-75.965c42.588,0,80.503,20.013,104.853,51.146
			c3.082,3.939,7.579,5.909,12.076,5.909s8.994-1.969,12.075-5.909c24.351-31.134,62.266-51.146,104.854-51.146
			c48.739,0,94.548,27.53,117.476,70.539C535.429,154.449,539.174,175.898,538.373,197.588z"/>
		<path d="M290.805,560.52c-11.452,0-22.55-3.321-32.094-9.604c-31.114-20.475-60.284-47.471-86.021-71.289
			c-6.028-5.58-11.72-10.848-17.361-15.972c-47.232-42.906-85.202-89.358-112.855-138.064c-19.61-34.537-31.614-63.663-37.778-91.66
			c-8.884-40.345-5.147-78.035,11.105-112.024c14.257-29.815,36.465-55.015,64.223-72.875c28.2-18.143,60.635-27.733,93.798-27.733
			c13.825,0,27.607,1.612,40.964,4.792c13.001,3.095,25.663,7.69,37.636,13.657c13.767,6.861,26.66,15.577,38.329,25.91
			c11.67-10.333,24.564-19.049,38.331-25.91c11.973-5.968,24.635-10.562,37.635-13.657c13.354-3.18,27.137-4.792,40.964-4.792
			c31.771,0,63.145,8.758,90.732,25.327c27.571,16.559,50.044,40.13,64.989,68.164c13.28,24.915,19.432,53.311,18.282,84.402
			c-0.541,14.613-2.736,29.81-6.525,45.169c-17.199,69.719-64.428,131.106-108.358,181.959
			c-42.77,49.51-91.449,91.617-144.687,125.154C312.72,557.392,301.894,560.52,290.805,560.52z M173.821,22.299
			c-32.971,0-65.219,9.535-93.257,27.574C52.962,67.632,30.879,92.69,16.702,122.338C0.548,156.122-3.164,193.595,5.671,233.716
			c6.142,27.896,18.112,56.933,37.671,91.38C70.943,373.711,108.847,420.08,156,462.915c5.646,5.128,11.338,10.396,17.365,15.975
			c25.711,23.795,54.85,50.762,85.895,71.19c9.381,6.176,20.289,9.439,31.544,9.439c10.9,0,21.542-3.075,30.775-8.892
			c53.153-33.484,101.758-75.528,144.463-124.963c43.854-50.764,90.996-112.031,108.145-181.544
			c3.772-15.293,5.959-30.422,6.496-44.967c1.144-30.912-4.968-59.138-18.165-83.894c-14.859-27.874-37.205-51.311-64.622-67.777
			c-27.432-16.476-58.628-25.184-90.217-25.184c-13.749,0-27.453,1.603-40.731,4.765c-12.927,3.077-25.517,7.646-37.422,13.579
			c-13.817,6.887-26.752,15.654-38.443,26.058l-0.333,0.296l-0.333-0.296c-11.69-10.403-24.624-19.17-38.443-26.057
			c-11.904-5.933-24.495-10.501-37.421-13.579C201.272,23.902,187.568,22.299,173.821,22.299z M290.805,517.678
			c-3.054,0-6.008-0.882-8.545-2.549c-28.158-18.529-54.754-43.145-80.475-66.948c-6.1-5.646-11.862-10.979-17.652-16.238
			c-43.866-39.848-78.994-82.746-104.405-127.504C53.514,258.267,26.95,197.895,54.449,140.386
			c22.149-46.319,69.006-76.249,119.373-76.249h0.001c41.369,0,79.729,18.712,105.247,51.338c2.842,3.633,7.1,5.717,11.682,5.717
			s8.84-2.083,11.682-5.717c25.518-32.626,63.879-51.338,105.248-51.338c48.702,0,94.987,27.792,117.917,70.803
			c9.674,18.151,14.141,39.235,13.274,62.666c-0.433,11.693-2.219,23.97-5.308,36.491c-15.03,60.932-58.573,117.204-99.185,164.214
			c-39.996,46.3-85.451,85.635-135.102,116.912C296.731,516.829,293.8,517.678,290.805,517.678z M173.822,65.137
			c-49.984,0-96.486,29.707-118.47,75.681c-27.3,57.091-0.849,117.167,25.246,163.126c25.36,44.666,60.421,87.481,104.208,127.258
			c5.793,5.263,11.557,10.597,17.659,16.244c25.691,23.777,52.256,48.363,80.346,66.847c2.373,1.561,5.137,2.385,7.995,2.385
			c2.807,0,5.553-0.795,7.94-2.3c49.567-31.225,94.947-70.495,134.879-116.721c40.533-46.92,83.989-103.072,98.97-163.799
			c3.072-12.455,4.849-24.665,5.278-36.289c0.86-23.252-3.567-44.165-13.157-62.158c-22.758-42.69-68.696-70.274-117.034-70.274
			c-41.06,0-79.134,18.572-104.461,50.955c-3.032,3.877-7.577,6.101-12.469,6.101s-9.437-2.224-12.47-6.101
			C252.956,83.709,214.881,65.137,173.822,65.137L173.822,65.137z"/>
	</g>
</g>
<g>
</g>
<g>
</g>
<g>
</g>
<g>
</g>
<g>
</g>
<g>
</g>
<g>
</g>
<g>
</g>
<g>
</g>
<g>
</g>
<g>
</g>
<g>
</g>
<g>
</g>
<g>
</g>
<g>
</g>
</svg>
